<svg width="1442" height="364" viewBox="0 0 1442 364" fill="none" xmlns="http://www.w3.org/2000/svg">
<path d="M1304.26 270H1326.26V292H1304.26V270ZM1326.26 270H1348.26V292H1326.26V270ZM1348.26 270H1370.26V292H1348.26V270ZM1370.26 270H1392.26V292H1370.26V270ZM1326.26 292H1348.26V314H1326.26V292ZM1348.26 292H1370.26V314H1348.26V292ZM1348.26 248H1370.26V270H1348.26V248ZM1326.26 248H1348.26V270H1326.26V248ZM1326.26 226H1348.26V248H1326.26V226ZM1326.26 204H1348.26V226H1326.26V204ZM1348.26 204H1370.26V226H1348.26V204ZM1348.26 182H1370.26V204H1348.26V182ZM1348.26 226H1370.26V248H1348.26V226ZM1326.26 182H1348.26V204H1326.26V182ZM1326.26 160H1348.26V182H1326.26V160ZM1348.26 160H1370.26V182H1348.26V160ZM1348.26 138H1370.26V160H1348.26V138ZM1326.26 138H1348.26V160H1326.26V138ZM1304.26 160H1326.26V182H1304.26V160ZM1370.26 160H1392.26V182H1370.26V160ZM1348.26 72H1370.26V94H1348.26V72ZM1326.26 72H1348.26V94H1326.26V72ZM1326.26 50H1348.26V72H1326.26V50ZM1348.26 50H1370.26V72H1348.26V50Z" fill="black"/>
<path d="M1172.06 270H1194.06V292H1172.06V270ZM1194.06 270H1216.06V292H1194.06V270ZM1216.06 270H1238.06V292H1216.06V270ZM1238.06 270H1260.06V292H1238.06V270ZM1260.06 270H1282.06V292H1260.06V270ZM1216.06 292H1238.06V314H1216.06V292ZM1238.06 292H1260.06V314H1238.06V292ZM1194.06 248H1216.06V270H1194.06V248ZM1216.06 248H1238.06V270H1216.06V248ZM1216.06 226H1238.06V248H1216.06V226ZM1216.06 204H1238.06V226H1216.06V204ZM1194.06 204H1216.06V226H1194.06V204ZM1194.06 226H1216.06V248H1194.06V226ZM1194.06 182H1216.06V204H1194.06V182ZM1216.06 182H1238.06V204H1216.06V182ZM1216.06 160H1238.06V182H1216.06V160ZM1216.06 138H1238.06V160H1216.06V138ZM1194.06 160H1216.06V182H1194.06V160ZM1194.06 138H1216.06V160H1194.06V138ZM1172.06 138H1194.06V160H1172.06V138ZM1238.06 138H1260.06V160H1238.06V138ZM1194.06 116H1216.06V138H1194.06V116ZM1216.06 116H1238.06V138H1216.06V116ZM1216.06 94H1238.06V116H1216.06V94ZM1194.06 94H1216.06V116H1194.06V94ZM1216.06 72H1238.06V94H1216.06V72ZM1260.06 138H1282.06V160H1260.06V138Z" fill="black"/>
<path d="M973.893 270H995.893V292H973.893V270ZM995.893 270H1017.89V292H995.893V270ZM1017.89 270H1039.89V292H1017.89V270ZM1039.89 270H1061.89V292H1039.89V270ZM995.893 292H1017.89V314H995.893V292ZM1017.89 292H1039.89V314H1017.89V292ZM1083.89 270H1105.89V292H1083.89V270ZM1105.89 270H1127.89V292H1105.89V270ZM1127.89 270H1149.89V292H1127.89V270ZM1105.89 292H1127.89V314H1105.89V292ZM1105.89 248H1127.89V270H1105.89V248ZM1083.89 248H1105.89V270H1083.89V248ZM1083.89 226H1105.89V248H1083.89V226ZM1083.89 204H1105.89V226H1083.89V204ZM1105.89 204H1127.89V226H1105.89V204ZM1105.89 226H1127.89V248H1105.89V226ZM995.893 248H1017.89V270H995.893V248ZM1017.89 248H1039.89V270H1017.89V248ZM1017.89 226H1039.89V248H1017.89V226ZM995.893 226H1017.89V248H995.893V226ZM995.893 204H1017.89V226H995.893V204ZM1017.89 204H1039.89V226H1017.89V204ZM1105.89 182H1127.89V204H1105.89V182ZM1083.89 182H1105.89V204H1083.89V182ZM1017.89 182H1039.89V204H1017.89V182ZM995.893 160H1017.89V182H995.893V160ZM995.893 182H1017.89V204H995.893V182ZM1127.89 160H1149.89V182H1127.89V160ZM1105.89 160H1127.89V182H1105.89V160ZM1083.89 160H1105.89V182H1083.89V160ZM1017.89 160H1039.89V182H1017.89V160ZM1039.89 160H1061.89V182H1039.89V160ZM1061.89 160H1083.89V182H1061.89V160ZM973.893 160H995.893V182H973.893V160ZM951.893 160H973.893V182H951.893V160ZM973.893 138H995.893V160H973.893V138ZM995.893 138H1017.89V160H995.893V138ZM1061.89 138H1083.89V160H1061.89V138ZM1083.89 138H1105.89V160H1083.89V138Z" fill="black"/>
<path d="M797.936 270H819.936V292H797.936V270ZM775.936 270H797.936V292H775.936V270ZM819.936 270H841.936V292H819.936V270ZM797.936 292H819.936V314H797.936V292ZM819.936 292H841.936V314H819.936V292ZM797.936 226H819.936V248H797.936V226ZM819.936 226H841.936V248H819.936V226ZM819.936 204H841.936V226H819.936V204ZM819.936 182H841.936V204H819.936V182ZM797.936 182H819.936V204H797.936V182ZM797.936 204H819.936V226H797.936V204ZM819.936 160H841.936V182H819.936V160ZM841.936 138H863.936V160H841.936V138ZM885.936 138H907.936V160H885.936V138ZM863.936 138H885.936V160H863.936V138ZM885.936 160H907.936V182H885.936V160ZM841.936 270H863.936V292H841.936V270ZM863.936 160H885.936V182H863.936V160ZM907.936 160H929.936V182H907.936V160ZM907.936 182H929.936V204H907.936V182ZM885.936 182H907.936V204H885.936V182ZM863.936 204H885.936V226H863.936V204ZM841.936 204H863.936V226H841.936V204ZM797.936 248H819.936V270H797.936V248ZM819.936 248H841.936V270H819.936V248ZM863.936 270H885.936V292H863.936V270Z" fill="black"/>
<path d="M489.785 270H511.785V292H489.785V270ZM511.785 270H533.785V292H511.785V270ZM533.785 270H555.785V292H533.785V270ZM555.785 270H577.785V292H555.785V270ZM511.785 292H533.785V314H511.785V292ZM533.785 292H555.785V314H533.785V292ZM599.785 270H621.785V292H599.785V270ZM621.785 270H643.785V292H621.785V270ZM643.785 270H665.785V292H643.785V270ZM621.785 292H643.785V314H621.785V292ZM621.785 248H643.785V270H621.785V248ZM599.785 248H621.785V270H599.785V248ZM599.785 226H621.785V248H599.785V226ZM599.785 204H621.785V226H599.785V204ZM621.785 204H643.785V226H621.785V204ZM621.785 226H643.785V248H621.785V226ZM511.785 248H533.785V270H511.785V248ZM533.785 248H555.785V270H533.785V248ZM533.785 226H555.785V248H533.785V226ZM511.785 226H533.785V248H511.785V226ZM511.785 204H533.785V226H511.785V204ZM533.785 204H555.785V226H533.785V204ZM687.785 204H709.785V226H687.785V204ZM687.785 226H709.785V248H687.785V226ZM687.785 248H709.785V270H687.785V248ZM709.785 248H731.785V270H709.785V248ZM709.785 226H731.785V248H709.785V226ZM709.785 204H731.785V226H709.785V204ZM709.785 270H731.785V292H709.785V270ZM687.785 270H709.785V292H687.785V270ZM709.785 292H731.785V314H709.785V292ZM731.785 270H753.785V292H731.785V270ZM687.785 182H709.785V204H687.785V182ZM709.785 182H731.785V204H709.785V182ZM709.785 160H731.785V182H709.785V160ZM687.785 160H709.785V182H687.785V160ZM621.785 182H643.785V204H621.785V182ZM599.785 182H621.785V204H599.785V182ZM533.785 182H555.785V204H533.785V182ZM511.785 160H533.785V182H511.785V160ZM511.785 182H533.785V204H511.785V182ZM665.785 160H687.785V182H665.785V160ZM643.785 160H665.785V182H643.785V160ZM621.785 160H643.785V182H621.785V160ZM599.785 160H621.785V182H599.785V160ZM533.785 160H555.785V182H533.785V160ZM555.785 160H577.785V182H555.785V160ZM577.785 160H599.785V182H577.785V160ZM489.785 160H511.785V182H489.785V160ZM467.785 160H489.785V182H467.785V160ZM489.785 138H511.785V160H489.785V138ZM511.785 138H533.785V160H511.785V138ZM577.785 138H599.785V160H577.785V138ZM599.785 138H621.785V160H599.785V138ZM665.785 138H687.785V160H665.785V138ZM687.785 138H709.785V160H687.785V138ZM731.785 160H753.785V182H731.785V160Z" fill="black"/>
<path d="M313.828 270H335.828V292H313.828V270ZM291.828 270H313.828V292H291.828V270ZM335.828 270H357.828V292H335.828V270ZM313.828 292H335.828V314H313.828V292ZM335.828 292H357.828V314H335.828V292ZM313.828 226H335.828V248H313.828V226ZM335.828 226H357.828V248H335.828V226ZM335.828 204H357.828V226H335.828V204ZM335.828 182H357.828V204H335.828V182ZM313.828 182H335.828V204H313.828V182ZM313.828 204H335.828V226H313.828V204ZM335.828 160H357.828V182H335.828V160ZM357.828 138H379.828V160H357.828V138ZM401.828 138H423.828V160H401.828V138ZM379.828 138H401.828V160H379.828V138ZM401.828 160H423.828V182H401.828V160ZM357.828 270H379.828V292H357.828V270ZM379.828 160H401.828V182H379.828V160ZM423.828 160H445.828V182H423.828V160ZM423.828 182H445.828V204H423.828V182ZM401.828 182H423.828V204H401.828V182ZM379.828 204H401.828V226H379.828V204ZM357.828 204H379.828V226H357.828V204ZM313.828 248H335.828V270H313.828V248ZM335.828 248H357.828V270H335.828V248ZM379.828 270H401.828V292H379.828V270Z" fill="black"/>
<path d="M50 50H72V72H50V50ZM72 50H94V72H72V50ZM94 50H116V72H94V50ZM116 50H138V72H116V50ZM138 50H160V72H138V50ZM160 50H182V72H160V50ZM182 50H204V72H182V50ZM204 50H226V72H204V50ZM94 72H116V94H94V72ZM116 72H138V94H116V72ZM138 72H160V94H138V72ZM160 72H182V94H160V72ZM182 72H204V94H182V72ZM204 72H226V94H204V72ZM94 116H116V138H94V116ZM116 116H138V138H116V116ZM116 138H138V160H116V138ZM94 138H116V160H94V138ZM94 182H116V204H94V182ZM116 182H138V204H116V182ZM116 204H138V226H116V204ZM94 226H116V248H94V226ZM116 226H138V248H116V226ZM50 292H72V314H50V292ZM50 138H72V160H50V138ZM72 138H94V160H72V138ZM94 160H116V182H94V160ZM116 160H138V182H116V160ZM50 182H72V204H50V182ZM72 182H94V204H72V182ZM94 204H116V226H94V204ZM72 270H94V292H72V270ZM94 270H116V292H94V270ZM116 270H138V292H116V270ZM138 270H160V292H138V270ZM160 270H182V292H160V270ZM182 270H204V292H182V270ZM204 270H226V292H204V270ZM116 292H138V314H116V292ZM138 292H160V314H138V292ZM160 292H182V314H160V292ZM182 292H204V314H182V292ZM160 226H182V248H160V226ZM160 204H182V226H160V204ZM160 182H182V204H160V182ZM160 160H182V182H160V160ZM160 138H182V160H160V138ZM160 116H182V138H160V116ZM160 94H182V116H160V94ZM226 94H248V116H226V94ZM226 116H248V138H226V116ZM226 138H248V160H226V138ZM226 160H248V182H226V160ZM226 182H248V204H226V182ZM226 204H248V226H226V204ZM248 94H270V116H248V94ZM248 116H270V138H248V116ZM248 138H270V160H248V138ZM248 160H270V182H248V160ZM248 182H270V204H248V182ZM226 50H248V72H226V50ZM226 72H248V94H226V72ZM248 72H270V94H248V72ZM226 226H248V248H226V226ZM248 226H270V248H248V226ZM248 204H270V226H248V204ZM226 248H248V270H226V248Z" fill="black"/>
</svg>
